<mxfile host="app.diagrams.net" modified="2024-01-01T04:42:57.639Z" agent="Mozilla/5.0 (Windows NT 10.0; Win64; x64) AppleWebKit/537.36 (KHTML, like Gecko) Chrome/120.0.0.0 Safari/537.36" etag="5XpirjBRGIdEiJW7c89T" version="22.1.15" type="github">
  <diagram name="第 1 页" id="cnIUandqyFZ5Glk0gNJO">
    <mxGraphModel dx="594" dy="412" grid="1" gridSize="10" guides="1" tooltips="1" connect="1" arrows="1" fold="1" page="1" pageScale="1" pageWidth="827" pageHeight="1169" math="0" shadow="0">
      <root>
        <mxCell id="0" />
        <mxCell id="1" parent="0" />
        <mxCell id="VJTlfqrWW2QYB_PkbTW--1" value="即兴发言的十二大套路：&lt;br&gt;&lt;br&gt;1.称呼+感谢2个人（主人、组织者）+回忆过去+祝福未来。&lt;br&gt;&lt;br&gt;2.称呼+赞美（直接赞美+借用别人的话赞美）+回忆过去+祝福未来。&lt;br&gt;&lt;br&gt;3.称呼+故事（经典故事+感悟）+回忆过去+祝福未来。&lt;br&gt;&lt;br&gt;4.称呼+前一位刚说过的话+回忆过去+祝福未来。" style="rounded=0;whiteSpace=wrap;html=1;fontSize=18;align=left;verticalAlign=top;" vertex="1" parent="1">
          <mxGeometry x="60" y="20" width="630" height="290" as="geometry" />
        </mxCell>
      </root>
    </mxGraphModel>
  </diagram>
</mxfile>
